# xmcd CD database file
#
# Track frame offsets:
#	150
#	17357
#	38242
#	56285
#	77003
#	92204
#	111752
#	126618
#	146834
#	164041
#	182251
#	204975
#
# Disc length: 2949 seconds
#
# Revision: 3
# Processed by: cddbd v1.4b42PL1 Copyright (c) Steve Scherf et al.
# Submitted via: CDex 1.40Beta8
#
DISCID=9e0b830c
DTITLE=Paul Millns - Unsung Heroes
DYEAR=1900
DGENRE=Blues
TTITLE0=The Last But One Time
TTITLE1=Sleeping By The Telephone
TTITLE2=Forget Her
TTITLE3=You Know How It Is
TTITLE4=Daddy, Don't Come Home
TTITLE5=Rats-On-Your-Trail
TTITLE6=You Will Rise Again
TTITLE7=Dirty Work
TTITLE8=Lovely Day
TTITLE9=Forbidden Kisses
TTITLE10=Free Delivery Of the Blues
TTITLE11=No Play Today
EXTD=ID3G: 0
EXTT0=
EXTT1=
EXTT2=
EXTT3=
EXTT4=
EXTT5=
EXTT6=
EXTT7=
EXTT8=
EXTT9=
EXTT10=
EXTT11=
PLAYORDER=
